<?xml version="1.0" standalone="no"?>
<!DOCTYPE svg PUBLIC "-//W3C//DTD SVG 20010904//EN"
 "http://www.w3.org/TR/2001/REC-SVG-20010904/DTD/svg10.dtd">
<svg version="1.0" xmlns="http://www.w3.org/2000/svg"
 width="700.000000pt" height="700.000000pt" viewBox="0 0 700.000000 700.000000"
 preserveAspectRatio="xMidYMid meet">
<metadata>
Created by potrace 1.11, written by Peter Selinger 2001-2013
</metadata>
<g transform="translate(0.000000,700.000000) scale(0.100000,-0.100000)"
fill="#000000" stroke="none">
<path d="M2668 6402 c-224 -130 -407 -240 -408 -244 0 -5 228 -400 399 -690
123 -209 241 -418 241 -427 0 -8 -73 -11 -252 -11 -1420 -3 -2568 -9 -2577
-14 -6 -4 -11 -15 -11 -26 0 -10 65 -129 145 -265 80 -136 145 -249 145 -251
0 -3 11 -22 24 -43 13 -21 293 -499 621 -1062 329 -563 602 -1029 607 -1036 7
-9 19 -6 46 12 40 25 360 213 622 363 91 52 166 96 168 97 4 4 -268 477 -368
640 -20 33 -43 74 -52 90 -8 17 -68 119 -132 229 -64 109 -115 203 -113 209 3
11 24 12 1812 21 506 3 943 5 971 5 35 1 54 6 57 15 3 8 -44 99 -105 202 -60
104 -118 205 -129 224 -11 19 -28 49 -38 65 -20 33 -924 1582 -951 1630 -10
17 -73 125 -141 240 -67 116 -129 222 -137 238 -7 15 -19 27 -25 27 -7 -1
-195 -108 -419 -238z"/>
<path d="M2136 3905 c2 -5 26 -84 53 -175 28 -91 73 -239 102 -330 28 -91 52
-169 53 -175 2 -5 13 -41 25 -80 12 -38 24 -77 26 -85 4 -15 112 -363 282
-910 47 -151 94 -303 104 -337 30 -99 54 -177 102 -333 127 -407 222 -716 249
-807 l31 -103 490 3 491 2 8 30 c4 17 10 39 12 50 2 11 43 173 91 360 47 187
88 347 90 355 2 8 13 53 25 100 12 47 23 92 25 100 2 8 26 104 54 212 28 108
51 199 51 202 0 14 29 4 34 -11 3 -10 53 -207 112 -438 58 -231 135 -535 171
-675 35 -140 66 -262 67 -270 3 -13 66 -15 494 -17 453 -2 491 0 496 15 3 9
44 143 92 297 47 154 103 336 124 405 21 69 97 316 170 550 73 234 138 445
145 470 7 25 22 74 33 110 29 89 154 495 187 605 14 50 33 108 40 130 8 22 47
146 86 275 39 129 84 273 99 320 27 84 42 142 41 157 -1 4 -264 8 -585 8
l-584 0 -36 -135 c-38 -145 -155 -605 -161 -630 -2 -8 -11 -44 -20 -80 -9 -36
-18 -72 -20 -80 -2 -8 -31 -123 -65 -255 -34 -132 -71 -277 -82 -322 -20 -83
-40 -107 -51 -60 -30 136 -89 393 -92 398 -2 3 -7 20 -10 38 -3 17 -28 127
-55 244 -65 275 -91 386 -96 417 -3 14 -7 32 -10 40 -3 8 -8 26 -10 40 -3 13
-14 63 -25 110 -11 47 -22 92 -24 100 -27 122 -39 166 -45 170 -7 4 -787 5
-812 1 -5 0 -8 -8 -8 -16 0 -8 -29 -139 -65 -291 -36 -152 -67 -286 -69 -298
-3 -11 -25 -109 -50 -216 -26 -107 -49 -206 -52 -220 -3 -14 -32 -139 -65
-278 -32 -139 -59 -255 -59 -257 0 -3 -6 -5 -12 -5 -8 0 -38 96 -81 268 -37
147 -86 337 -108 422 -22 85 -41 162 -43 170 -13 52 -177 698 -181 710 -4 13
-79 15 -594 15 -390 0 -587 -3 -585 -10z"/>
</g>
</svg>
