<?xml version="1.0" standalone="no"?>
<!DOCTYPE svg PUBLIC "-//W3C//DTD SVG 20010904//EN"
 "http://www.w3.org/TR/2001/REC-SVG-20010904/DTD/svg10.dtd">
<svg version="1.0" xmlns="http://www.w3.org/2000/svg"
 width="300.000000pt" height="300.000000pt" viewBox="0 0 300.000000 300.000000"
 preserveAspectRatio="xMidYMid meet">
<metadata>
Created by potrace 1.11, written by Peter Selinger 2001-2013
</metadata>
<g transform="translate(0.000000,300.000000) scale(0.100000,-0.100000)"
fill="#000000" stroke="none">
<path d="M1709 2557 c-67 -45 -101 -147 -73 -216 25 -60 54 -76 128 -72 96 5
169 162 118 252 -33 59 -114 76 -173 36z"/>
<path d="M1545 1935 c-58 -31 -141 -106 -195 -177 -8 -11 -24 -32 -36 -46 -26
-34 -94 -145 -94 -154 0 -4 18 -17 40 -28 38 -19 41 -20 47 -3 10 29 102 151
135 178 16 14 36 25 43 25 36 0 21 -48 -111 -356 -162 -380 -174 -411 -181
-490 -6 -68 11 -115 49 -135 28 -15 103 -7 153 16 57 27 164 137 227 235 55
84 108 182 108 198 0 8 -70 46 -74 40 -1 -2 -21 -35 -44 -74 -54 -92 -118
-173 -145 -183 -28 -11 -57 4 -57 28 0 19 23 75 96 230 24 51 44 95 44 96 0 2
22 50 49 107 62 132 106 234 119 278 26 83 18 164 -19 203 -25 27 -112 34
-154 12z"/>
</g>
</svg>
