<?xml version="1.0" standalone="no"?>
<!DOCTYPE svg PUBLIC "-//W3C//DTD SVG 20010904//EN"
 "http://www.w3.org/TR/2001/REC-SVG-20010904/DTD/svg10.dtd">
<svg version="1.0" xmlns="http://www.w3.org/2000/svg"
 width="300.000000pt" height="300.000000pt" viewBox="0 0 300.000000 300.000000"
 preserveAspectRatio="xMidYMid meet">
<metadata>
Created by potrace 1.11, written by Peter Selinger 2001-2013
</metadata>
<g transform="translate(0.000000,300.000000) scale(0.100000,-0.100000)"
fill="#000000" stroke="none">
<path d="M1399 2423 c-1 -5 -2 -25 -3 -45 -1 -33 2 -38 24 -42 14 -3 53 -11
88 -17 34 -6 64 -15 67 -18 3 -6 -244 -827 -321 -1066 -9 -27 -18 -57 -20 -65
-26 -102 -62 -201 -74 -205 -16 -5 -50 -11 -115 -20 -73 -11 -75 -12 -75 -61
l0 -44 315 0 315 0 0 45 c0 50 9 45 -116 67 l-72 13 60 195 c33 107 61 202 63
210 2 8 67 223 146 476 l141 462 42 5 c179 25 166 19 166 72 l0 45 -315 0
c-173 0 -315 -3 -316 -7z"/>
</g>
</svg>
